<svg xmlns="http://www.w3.org/2000/svg" xmlns:xlink="http://www.w3.org/1999/xlink" width="92" height="111" viewBox="0 0 92 111" overflow="visible" enable-background="new 0 0 92 111" xml:space="preserve">
  <path fill="none" stroke="#000000" stroke-width="0.18" d="M36.508,17.546c1.147-1.147,4.714,1.816,9.048-2.518
    c2.663-2.663,2.586-6.998-0.072-9.656c-3.351-3.35-8.063-2.731-11.333,0.538c-7.074,7.074-9.353,19.081,0.611,29.046l11.477,11.477
    l-3.834,6.88l2.356,2.356c4.525-3.551,7.958-2.317,11.663,0.948l16.134,16.135l11.702-20.992l-2.354-2.355
    c-4.946,3.881-8.588,2.055-12.705-1.9L49.431,27.736c-4.485-4.486-4.782-4.945-10.643-7.316c-0.534-0.223-1.596-0.66-2.056-1.12
    C36.346,18.915,35.979,18.075,36.508,17.546z M8.839,58.933c4.941-3.875,8.58-2.051,12.704,1.901l19.774,19.773
    c4.481,4.481,4.775,4.946,10.637,7.31c0.54,0.221,1.598,0.67,2.054,1.125c0.381,0.381,0.755,1.221,0.223,1.753
    c-1.147,1.147-4.713-1.814-9.044,2.516c-2.661,2.664-2.587,7.001,0.071,9.659c3.35,3.351,8.062,2.732,11.332-0.537
    c7.079-7.077,9.354-19.08-0.61-29.046L18.18,35.59L6.483,56.577L8.839,58.933z"/>
</svg>
