<svg width="92" height="111" viewBox="-0.366 -0.382 92 111" enable-background="new -0.366 -0.382 92 111" xml:space="preserve">
<defs>
</defs>
<path d="M71.123,12.979c2.128,0,2.688,6.057,10.728,6.057c4.94,0,8.889-4.093,8.889-9.023C90.739,3.798,85.795,0,79.729,0
	C66.606,0,53.354,9.023,53.354,27.509v21.292l-9.938,2.825v4.371c7.492,0.905,9.532,5.232,9.938,11.697v29.932l30.326-8.617V84.64
	c-8.187-0.989-9.87-6.059-10.022-13.547V34.418c0-8.322,0.152-9.023-3.087-16.658c-0.288-0.703-0.868-2.092-0.868-2.946
	C69.703,14.098,70.141,12.979,71.123,12.979z M7.068,25.703c8.177,0.989,9.86,6.057,10.02,13.547v36.682
	c0,8.315-0.159,9.017,3.087,16.648c0.295,0.705,0.861,2.102,0.861,2.948c0,0.708-0.431,1.833-1.42,1.833
	c-2.128,0-2.688-6.055-10.722-6.055C3.955,91.307,0,95.4,0,100.331c0,6.214,4.944,10.013,11.01,10.013
	c13.13,0,26.375-9.023,26.375-27.509v-70.12L7.068,21.332V25.703z"/>
</svg>
